<?xml version="1.0" encoding="UTF-8" standalone="no"?>
<svg
   width="1000"
   height="1000"
   viewBox="0 0 1000 1000"
   fill="none"
   version="1.1"
   id="svg6"
   sodipodi:docname="logo.svg"
   inkscape:version="1.2.2 (732a01da63, 2022-12-09)"
   inkscape:export-filename="Tailwind_CSS_Logo.png"
   inkscape:export-xdpi="96"
   inkscape:export-ydpi="96"
   xmlns:inkscape="http://www.inkscape.org/namespaces/inkscape"
   xmlns:sodipodi="http://sodipodi.sourceforge.net/DTD/sodipodi-0.dtd"
   xmlns="http://www.w3.org/2000/svg"
   xmlns:svg="http://www.w3.org/2000/svg">
  <defs
     id="defs10" />
  <sodipodi:namedview
     id="namedview8"
     pagecolor="#ffffff"
     bordercolor="#000000"
     borderopacity="0.25"
     inkscape:showpageshadow="2"
     inkscape:pageopacity="0.0"
     inkscape:pagecheckerboard="0"
     inkscape:deskcolor="#d1d1d1"
     showgrid="false"
     inkscape:zoom="0.58619152"
     inkscape:cx="-37.530396"
     inkscape:cy="549.30853"
     inkscape:window-width="2560"
     inkscape:window-height="1009"
     inkscape:window-x="-8"
     inkscape:window-y="-8"
     inkscape:window-maximized="1"
     inkscape:current-layer="svg6" />
  <path
     d="m 386.65932,180.07774 c -161.5,5.133 -209.5,120.5 -220.5,183 14.3333,-23.167 59.5,-73.999 126,-73.999 77.5,0 136.5,86.5 172.5,113.5 43.737,32.803 131.623,76.115 247,41 92,-28 134.667,-125.668 144,-172.001 -44.5,60.5 -112,96.839 -195.5,54 -57.5,-29.5 -100.5,-150.999 -273.5,-145.5 z"
     fill="#07b6d5"
     id="path1580"
     style="fill:#e1fafe;fill-opacity:1" />
  <path
     d="m 386.65932,365.37714 c -161.5,5.133 -209.5,120.5 -220.5,183 14.3333,-23.167 59.5,-73.999 126,-73.999 77.5,0 136.5,86.5 172.5,113.5 43.737,32.803 131.623,76.115 247,41 92,-28 134.667,-125.668 144,-172.001 -44.5,60.5 -112,96.839 -195.5,54 -57.5,-29.5 -100.5,-150.999 -273.5,-145.5 z"
     fill="#07b6d5"
     id="path1578"
     style="fill:#82e9fb;fill-opacity:1" />
  <path
     d="m 386.65932,546.85207 c -161.5,5.133 -209.5,120.5 -220.5,183 14.3333,-23.167 59.5,-73.999 126,-73.999 77.5,0 136.5,86.5 172.5,113.5 43.737,32.803 131.623,76.115 247,41 92,-28 134.667,-125.668 144,-172.001 -44.5,60.5 -112,96.839 -195.5,54 -57.5,-29.5 -100.5,-150.999 -273.5,-145.5 z"
     fill="#07b6d5"
     id="path4" />
</svg>
